Coordinates
version=1
nRows=60
nColumns=12
inDegrees=yes

Units are S.I. units (second, meters, Newtons, ...)
Angles are in degrees

endheader
time	SC_y	SC_z	SC_x	AC_y	AC_z	AC_x	GH_y	GH_z	GH_yy	EL_x	PS_y
       0.0              -14.43        -0.1124          61.63          37.45         -16.49          3.064         -177.3          35.61         -15.29          39.89          43.04
   0.03969              -14.43        -0.1098          61.62          37.46         -16.49          3.066         -177.2           35.6          -15.3           39.9          43.03
   0.07938              -14.43        -0.1071          61.61          37.46         -16.49          3.067         -177.2           35.6          -15.3          39.91          43.03
    0.1191              -14.43        -0.1042          61.61          37.47         -16.49          3.069         -177.2          35.59         -15.31          39.93          43.02
    0.1588              -14.43        -0.1012           61.6          37.47         -16.48          3.071         -177.2          35.59         -15.32          39.94          43.02
    0.1984              -14.43       -0.09793          61.59          37.48         -16.48          3.072         -177.2          35.58         -15.33          39.95          43.01
    0.2381              -14.43       -0.09444          61.58          37.48         -16.48          3.074         -177.2          35.57         -15.33          39.97           43.0
    0.2778              -14.43       -0.09072          61.57          37.49         -16.48          3.076         -177.2          35.56         -15.34          39.98           43.0
    0.3175              -14.43       -0.08673          61.57          37.49         -16.48          3.079         -177.2          35.56         -15.35           40.0          42.99
    0.3572              -14.43       -0.08245          61.55           37.5         -16.47          3.081         -177.2          35.55         -15.36          40.02          42.98
    0.3969              -14.43       -0.07785          61.54          37.51         -16.47          3.083         -177.1          35.54         -15.38          40.03          42.97
    0.4366              -14.43        -0.0729          61.53          37.51         -16.47          3.086         -177.1          35.53         -15.39          40.06          42.96
    0.4763              -14.43       -0.06757          61.52          37.52         -16.46          3.089         -177.1          35.52          -15.4          40.08          42.95
     0.516              -14.43       -0.06181           61.5          37.53         -16.46          3.092         -177.1          35.51         -15.42           40.1          42.94
    0.5556              -14.43       -0.05558          61.49          37.54         -16.46          3.096         -177.1          35.49         -15.43          40.13          42.93
    0.5953              -14.43       -0.04881          61.47          37.55         -16.45          3.099         -177.1          35.48         -15.45          40.15          42.92
     0.635              -14.43       -0.04147          61.46          37.56         -16.45          3.104         -177.0          35.47         -15.47          40.19           42.9
    0.6747              -14.43       -0.03346          61.44          37.58         -16.45          3.108         -177.0          35.45         -15.49          40.22          42.89
    0.7144              -14.44       -0.02472          61.42          37.59         -16.44          3.113         -177.0          35.43         -15.51          40.25          42.87
    0.7541              -14.44       -0.01515          61.39           37.6         -16.43          3.118         -177.0          35.41         -15.53          40.29          42.86
    0.7938              -14.44      -0.004646          61.37          37.62         -16.43          3.124         -176.9          35.39         -15.56          40.34          42.84
    0.8335              -14.44       0.006921          61.34          37.64         -16.42           3.13         -176.9          35.37         -15.59          40.39          42.81
    0.8731              -14.44        0.01969          61.31          37.66         -16.41          3.137         -176.9          35.34         -15.62          40.44          42.79
    0.9128              -14.44        0.03385          61.27          37.68         -16.41          3.145         -176.8          35.31         -15.65           40.5          42.76
    0.9525              -14.44        0.04958          61.24           37.7          -16.4          3.154         -176.8          35.28         -15.69          40.56          42.73
    0.9922              -14.44        0.06714          61.19          37.73         -16.39          3.163         -176.7          35.25         -15.74          40.64           42.7
     1.032              -14.44         0.0868          61.15          37.76         -16.37          3.174         -176.6          35.21         -15.79          40.72          42.66
     1.072              -14.44         0.1089          61.09           37.8         -16.36          3.186         -176.6          35.16         -15.84          40.81          42.62
     1.111              -14.44         0.1339          61.03          37.83         -16.35            3.2         -176.5          35.11          -15.9          40.91          42.58
     1.151              -14.45         0.1623          60.96          37.88         -16.33          3.216         -176.4          35.06         -15.98          41.03          42.52
     1.191              -14.45         0.1947          60.88          37.93         -16.31          3.234         -176.3          34.99         -16.06          41.16          42.46
      1.23              -14.45         0.2319          60.79          37.99         -16.29          3.254         -176.2          34.92         -16.15          41.32          42.39
      1.27              -14.45         0.2748          60.69          38.05         -16.27          3.278         -176.1          34.83         -16.26           41.5          42.31
      1.31              -14.45         0.3247          60.57          38.13         -16.24          3.305         -175.9          34.73         -16.38           41.7          42.22
     1.349              -14.46          0.383          60.43          38.22          -16.2          3.338         -175.7          34.61         -16.53          41.95          42.11
     1.389              -14.46         0.4518          60.26          38.33         -16.16          3.375         -175.5          34.48          -16.7          42.23          41.98
     1.429              -14.47         0.5336          60.06          38.45         -16.11          3.421         -175.3          34.31          -16.9          42.57          41.83
     1.468              -14.47         0.6316          59.83          38.61         -16.06          3.475         -175.0          34.12         -17.15          42.98          41.64
     1.508              -14.48         0.7501          59.54          38.79         -15.99           3.54         -174.6          33.88         -17.44          43.47          41.42
     1.548              -14.49          0.895          59.19          39.01          -15.9           3.62         -174.2          33.59         -17.81          44.07          41.15
     1.588               -14.5          1.074          58.76          39.29          -15.8          3.718         -173.6          33.23         -18.25          44.81          40.81
     1.627              -14.51          1.297          58.22          39.64         -15.67          3.841         -173.0          32.78         -18.81          45.73          40.39
     1.667              -14.52          1.577          57.54          40.07         -15.51          3.996         -172.1          32.22         -19.51           46.9          39.87
     1.707              -14.54          1.934          56.67          40.63          -15.3          4.193         -171.0           31.5          -20.4          48.38           39.2
     1.746              -14.57          2.391          55.57          41.33         -15.03          4.445         -169.6          30.59         -21.54          50.27          38.34
     1.786               -14.6          2.978          54.15          42.24         -14.69          4.768         -167.9          29.41         -23.01           52.7          37.24
     1.826              -14.64          3.726          52.33           43.4         -14.25          5.181         -165.6          27.91         -24.88           55.8          35.84
     1.865              -14.69          4.668          50.05          44.86          -13.7            5.7         -162.7          26.02         -27.23          59.71          34.07
     1.905              -14.75          5.816          47.28          46.64         -13.03          6.333         -159.2          23.72          -30.1          64.46          31.92
     1.945              -14.83          7.146          44.06           48.7         -12.26          7.066         -155.2          21.05         -33.42          69.98          29.42
     1.984               -14.9          8.586          40.57          50.93         -11.42           7.86         -150.8          18.16         -37.02          75.95          26.72
     2.024              -14.98          10.03          37.08          53.17         -10.58          8.654         -146.4          15.28         -40.62          81.92          24.02
     2.064              -15.06          11.36          33.86          55.23         -9.804          9.387         -142.4          12.61         -43.94          87.43          21.52
     2.103              -15.12           12.5          31.08           57.0         -9.135          10.02         -138.9          10.31          -46.8          92.19          19.37
     2.143              -15.17          13.45           28.8          58.46         -8.586          10.54         -136.1          8.418         -49.16          96.09           17.6
     2.183              -15.21          14.19          26.99          59.62         -8.149          10.95         -133.8          6.917         -51.03           99.2           16.2
     2.223              -15.24          14.78          25.57          60.53         -7.807          11.28         -132.0          5.741         -52.49          101.6           15.1
     2.262              -15.27          15.24          24.47          61.24         -7.541          11.53         -130.6          4.825         -53.63          103.5          14.24
     2.302              -15.29          15.59           23.6          61.79         -7.333          11.72         -129.5          4.109         -54.53          105.0          13.57
     2.342               -15.3          15.88          22.92          62.23         -7.169          11.88         -128.7          3.546         -55.23          106.2          13.05
